<svg id="Layer_3" data-name="Layer 3" xmlns="http://www.w3.org/2000/svg" viewBox="0 0 649.07 154.59"><defs><style>.cls-1{fill:#1d1d1b;}.cls-2{fill:#851550;}</style></defs><title>BGS_Logo_magenta</title><path class="cls-1" d="M491.91,395.06a27.45,27.45,0,0,0-12.06-3c-8.75,0-11.82,5.39-11.82,10.16,0,5.72,4.49,9.51,11.16,9.51a11.79,11.79,0,0,0,5.34-1.14v-3.78h-4.68v-5.91h12.72v13.19c-2.41,2.51-8.37,4.35-13.57,4.35-11.26,0-19.25-6.86-19.25-16.5,0-9.84,7.95-16.6,19.44-16.6A30.55,30.55,0,0,1,491.91,388Z" transform="translate(-271.57 -325.58)"/><path class="cls-1" d="M502.59,404.65c.29-3,2-4.77,4.73-4.77s4.44,1.8,4.73,4.77Zm15.13,6.62c-3.21,2.32-5.34,3.12-8.08,3.12-4.31,0-6.95-2.27-7.19-6.14H518.1c.33-7.95-4.92-12.44-11.25-12.44-6.72,0-11.49,4.73-11.49,11.4s5,11.25,12.62,11.25a15.8,15.8,0,0,0,9.74-2.88Z" transform="translate(-271.57 -325.58)"/><path class="cls-1" d="M538,407c0,4.78-1.71,7.42-4.92,7.42-2.6,0-5-1.65-5-7.28,0-4.91,2-7.23,5-7.23C536.54,399.88,538,402.72,538,407Zm7.33.19c0-8.37-6.91-11.35-12.25-11.35-6.43,0-12.34,3.88-12.34,11.3,0,6.86,5.2,11.35,12.34,11.35C537.91,418.46,545.34,415.81,545.34,407.16Z" transform="translate(-271.57 -325.58)"/><path class="cls-1" d="M555.74,418h-6.86V385.79h6.86Z" transform="translate(-271.57 -325.58)"/><path class="cls-1" d="M576.54,407c0,4.78-1.7,7.42-4.92,7.42-2.6,0-5-1.65-5-7.28,0-4.91,2-7.23,5-7.23C575.07,399.88,576.54,402.72,576.54,407Zm7.33.19c0-8.37-6.9-11.35-12.25-11.35-6.43,0-12.34,3.88-12.34,11.3,0,6.86,5.2,11.35,12.34,11.35C576.44,418.46,583.87,415.81,583.87,407.16Z" transform="translate(-271.57 -325.58)"/><path class="cls-1" d="M592,404.28a3.91,3.91,0,0,1,4-4A3.76,3.76,0,0,1,599.9,404,4.06,4.06,0,0,1,596,408.2,4,4,0,0,1,592,404.28Zm16.31-8H595.36c-7.85,0-9.74,5.25-9.74,7.94a7,7,0,0,0,6.1,6.72V411c-1.28.28-4,.9-4,3.22,0,1.56,1.18,2.41,2.64,2.83v.1c-4.82,1.23-5.81,3.59-5.81,5.43,0,2.89,2.46,6.34,11.63,6.34,7,0,11.54-2.27,11.54-7.33a6,6,0,0,0-1.75-4.21c-3.6-3.64-11.92-1.46-11.92-4s6.34-.28,10.21-4.16a6.67,6.67,0,0,0,2-4.77,6.89,6.89,0,0,0-1.09-3.65h3.12Zm-6.85,25.86c0,1.47-1.89,2.74-4.92,2.74-3.64,0-5.63-.89-5.63-2.55s2-2.6,5.2-2.6C599.52,419.69,601.46,420.54,601.46,422.1Z" transform="translate(-271.57 -325.58)"/><path class="cls-1" d="M617.53,418h-6.85v-21.8h6.85Zm.34-28.9a3.79,3.79,0,1,1-3.79-3.78A3.8,3.8,0,0,1,617.87,389.14Z" transform="translate(-271.57 -325.58)"/><path class="cls-1" d="M640,417a21.3,21.3,0,0,1-7.38,1.46C625,418.46,620,414,620,407.21s5.15-11.4,12.34-11.4a22.67,22.67,0,0,1,7.33,1.42v5.11a12.57,12.57,0,0,0-5.58-1.47c-4.11,0-6.76,2.46-6.76,6.29s2.6,6.43,6.52,6.43c1.66,0,3.12-.38,6.15-1.51Z" transform="translate(-271.57 -325.58)"/><path class="cls-1" d="M655.6,412.74a5.82,5.82,0,0,1-3.79,1.65,2.27,2.27,0,0,1-2.22-2.31c0-2.18,1.94-3.12,6-4.59Zm10.59-.09c-1.61,1.13-2.13,1.22-2.6,1.22-.71,0-1.14-.42-1.14-1.51v-9.93c0-4.77-3.73-6.62-9.22-6.62a17.68,17.68,0,0,0-9.45,2.65V404a11.89,11.89,0,0,1,8-3.64c3,0,3.93,1.61,3.79,3.64-9.13,2.84-13,3.88-13,9.08,0,2.74,2.6,5.34,6.1,5.34a12.18,12.18,0,0,0,7.19-2.46c.47,1.75,1.56,2.46,3.83,2.46a14.23,14.23,0,0,0,6.43-2Z" transform="translate(-271.57 -325.58)"/><path class="cls-1" d="M674.84,418H668V385.79h6.86Z" transform="translate(-271.57 -325.58)"/><path class="cls-1" d="M711.48,394.16c-4.68-2.08-7.47-2.89-10.21-2.89s-4.73,1-4.73,2.65c0,4.87,16.41,3.5,16.41,14.75,0,6.2-5.2,9.79-12.39,9.79-5.62,0-8.42-1.46-11.63-3.12v-6.95c4.63,3.07,7.47,4.16,11,4.16,3.07,0,4.73-1.09,4.73-3,0-5.29-16.41-3.36-16.41-14.94,0-5.58,4.82-9.27,12.29-9.27a26.33,26.33,0,0,1,10.92,2.51Z" transform="translate(-271.57 -325.58)"/><path class="cls-1" d="M730.3,414.91c-2.17,2.51-4.3,3.55-7,3.55-4.31,0-8-2.65-8-8.27V396.24h6.85v13.47c0,3.08,1.66,4.16,3.45,4.16a5.22,5.22,0,0,0,4.69-3.73v-13.9h6.9V418H730.3Z" transform="translate(-271.57 -325.58)"/><path class="cls-1" d="M748.69,402.48h.1c2-4.54,4.3-6.67,7-6.67,1.37,0,2.55.52,4.54,2l-1.89,6.05c-1.8-1.13-3-1.61-4.07-1.61-2.5,0-4.11,2.37-5.63,6.39V418h-6.85v-21.8h6.85Z" transform="translate(-271.57 -325.58)"/><path class="cls-1" d="M758.91,396.24h7.33l4.63,12,4.68-12h7.28l-10,22.22H769Z" transform="translate(-271.57 -325.58)"/><path class="cls-1" d="M790.26,404.65c.28-3,2-4.77,4.73-4.77s4.44,1.8,4.72,4.77Zm15.13,6.62c-3.22,2.32-5.35,3.12-8.09,3.12-4.3,0-6.95-2.27-7.18-6.14h15.64c.34-7.95-4.91-12.44-11.25-12.44-6.71,0-11.49,4.73-11.49,11.4s5,11.25,12.63,11.25a15.82,15.82,0,0,0,9.74-2.88Z" transform="translate(-271.57 -325.58)"/><path class="cls-1" d="M815.17,428.48h-7.28l6.38-14-8.51-18.25h7.33l4.59,11.2,4.92-11.2h7.18Z" transform="translate(-271.57 -325.58)"/><path class="cls-1" d="M468.11,350.3h4.21c2.93,0,4.12,1.75,4.12,3.4s-1.19,3.5-4.12,3.5h-4.21Zm-8-5.91v32.25h15.7c9.41,0,11.4-5.77,11.4-9.46s-2.27-7.09-6.86-8.27a7.31,7.31,0,0,0,4.4-6.44c0-3.59-3.07-8.08-10.69-8.08Zm8,18.72h5.63c2.84,0,4.92,1.28,4.92,3.64,0,2.79-1.56,4-6,4h-4.54Z" transform="translate(-271.57 -325.58)"/><path class="cls-1" d="M497.71,361.08h.1c2-4.54,4.3-6.67,6.95-6.67,1.37,0,2.55.52,4.54,2l-1.89,6.05c-1.8-1.13-3-1.61-4.07-1.61-2.51,0-4.11,2.37-5.63,6.39v9.41h-6.85v-21.8h6.85Z" transform="translate(-271.57 -325.58)"/><path class="cls-1" d="M517.67,376.64h-6.86v-21.8h6.86Zm.33-28.89a3.79,3.79,0,1,1-3.79-3.79A3.8,3.8,0,0,1,518,347.75Z" transform="translate(-271.57 -325.58)"/><path class="cls-1" d="M538,359.52H530v9a3.17,3.17,0,0,0,3.35,3.5,9.57,9.57,0,0,0,4.59-1.27v5a15.56,15.56,0,0,1-6.34,1.37c-4.54,0-8.46-2.08-8.46-8.18v-9.36H520V358.2L529.16,348H530v6.86H538Z" transform="translate(-271.57 -325.58)"/><path class="cls-1" d="M547.31,376.64h-6.85v-21.8h6.85Zm.33-28.89a3.78,3.78,0,1,1-3.78-3.79A3.79,3.79,0,0,1,547.64,347.75Z" transform="translate(-271.57 -325.58)"/><path class="cls-1" d="M566.93,360.89a15.35,15.35,0,0,0-7.28-2.41c-.9,0-2.46.19-2.46,1.7,0,2.41,10.83,2.51,10.83,9.79,0,4.54-3.21,7.09-8.89,7.09a19.8,19.8,0,0,1-7.8-1.61v-4.82a17.58,17.58,0,0,0,7,1.85c2,0,3.3-.62,3.3-1.61,0-3.17-10.82-2.6-10.82-9.74,0-4,3.64-6.72,9-6.72a14.63,14.63,0,0,1,7,1.61Z" transform="translate(-271.57 -325.58)"/><path class="cls-1" d="M577.9,358.05h.1a8.42,8.42,0,0,1,6.9-3.64c4,0,8,2.42,8,8.33v13.9H586V364.2c0-3.26-1.42-4.77-3.55-4.77-1.61,0-3,1-4.59,3.31v13.9h-6.85V344.39h6.85Z" transform="translate(-271.57 -325.58)"/><path class="cls-2" d="M332.25,377.63h35.4c1.08.15,2.48,2.33,2.25,2.56v7.3h-9.71c.39-.16-.15-1.09-.38-.86H339.7c-.31-.23-1.24.86-1,.94s0,.07,0,0v12.34c-.31.54.31,1,.47.77h19.95c.23.16,1.08-.69.62-.85v-3.26H347.62v-7.69H370v18.17c-.08,1.32-2,2.64-3.73,2.56H332.64c-3.57-.15-5.13-4.42-4.74-4.5v-24C328,378,332,377.4,332.25,377.63Z" transform="translate(-271.57 -325.58)"/><path class="cls-2" d="M375.1,377.32h31.83c1.39-.31,3.41,2.64,3,2.64v6.67h-10.4c.47-.46-.39-1.24-.54-1H383.33a1.36,1.36,0,0,0,0,2.56H408c.78.07,2.18,2.09,1.87,2.25v14.9c-.31,2.18-4.12,3.81-4.27,3.57H374.56c-1.79-.07-2.72-2.47-2.72-2.79v-7.3h10.87a.63.63,0,0,0,.46,1h15.14a1.84,1.84,0,0,0-.16-3.65H374.09c-2.1-.31-2.56-2.79-2.25-2.87V380.5C372.23,377.94,374.79,377.09,375.1,377.32Z" transform="translate(-271.57 -325.58)"/><polygon class="cls-2" points="20.16 102.89 20.16 98.94 42.05 98.94 93.67 86.28 93.67 90.01 42.05 102.89 20.16 102.89"/><polygon class="cls-2" points="20.08 108.02 20.08 104.06 41.97 104.06 93.59 91.4 93.59 95.13 41.97 108.02 20.08 108.02"/><polygon class="cls-2" points="20.23 113.06 20.23 109.1 42.12 109.1 93.75 96.45 93.75 100.18 42.12 113.06 20.23 113.06"/><polygon class="cls-2" points="109.66 101.11 135.04 101.11 135.04 97.07 109.74 97.07 60.91 109.34 60.83 112.75 109.66 101.11"/><polygon class="cls-2" points="109.58 106.08 134.97 106.08 134.97 102.04 109.58 102.04 60.76 114.31 60.76 117.72 109.58 106.08"/><polygon class="cls-2" points="109.5 111.2 134.89 111.2 134.89 107.16 109.5 107.16 60.68 119.43 60.68 122.84 109.5 111.2"/><polygon class="cls-2" points="61.45 131.62 61.45 141.48 64.91 141.48 64.91 128.16 61.53 128.16 57.79 130.99 57.79 134.06 61.45 131.62"/><path class="cls-2" d="M351.77,458.79v2.1h3.34c2.29,1.78,0,2.79,0,2.79-1.24.39-2.06.19-4.62-1.57v2.71c0-.26,1.37,3.05,5.94,2,5.4-1.28,4.11-8.07-.08-8.18l2.8-2.14v-2.72h-8.66v2.84l3.46,0h.35Z" transform="translate(-271.57 -325.58)"/><path class="cls-2" d="M361.65,453.74v6.85s7.7-1.18,4.64,2.72c0,0-3.13,1.18-4.6-1.14l0,3.33a5.21,5.21,0,0,0,2.91,1.28c6.42.76,9.35-9.43-.16-8.69V456.5H370v-2.76h-8.36" transform="translate(-271.57 -325.58)"/><path class="cls-2" d="M347.2,459.47a3.21,3.21,0,0,0,2.05-2.7c0-1.88-2.31-3.4-5.16-3.4s-5.16,1.52-5.16,3.4a3.3,3.3,0,0,0,2.23,2.8,4,4,0,0,0-2.31,3.41c0,2.31,2.43,4.17,5.43,4.17s5.43-1.86,5.43-4.17A4,4,0,0,0,347.2,459.47Zm-3.15-3.19c1,0,1.81.57,1.81,1.27s-.81,1.26-1.81,1.26-1.81-.57-1.81-1.26S343.05,456.28,344.05,456.28Zm.23,8.07c-1.18,0-2.14-.61-2.14-1.37s1-1.37,2.14-1.37,2.14.61,2.14,1.37S345.46,464.35,344.28,464.35Z" transform="translate(-271.57 -325.58)"/><path class="cls-2" d="M340.44,367.53c-1.37,0-2.47.66-2.47,1.48s1.1,1.48,2.47,1.48,2.47-.66,2.47-1.48S341.8,367.53,340.44,367.53Z" transform="translate(-271.57 -325.58)"/><path class="cls-2" d="M352,371.57c-1.3,0-2.36.42-2.36.93s1.06.94,2.36.94,2.36-.42,2.36-.94S353.35,371.57,352,371.57Z" transform="translate(-271.57 -325.58)"/><polygon class="cls-2" points="74.61 42.81 76.67 44.56 78.73 42.81 76.67 40.33 74.61 42.81"/><path class="cls-2" d="M338.77,372.08c-1.12,0-2,.42-2,.93s.91.93,2,.93,2-.41,2-.93S339.89,372.08,338.77,372.08Z" transform="translate(-271.57 -325.58)"/><path class="cls-2" d="M344.44,371.57c-1.31,0-2.36.42-2.36.93s1.05.94,2.36.94,2.36-.42,2.36-.94S345.74,371.57,344.44,371.57Z" transform="translate(-271.57 -325.58)"/><path class="cls-2" d="M357.71,372.08c-1.12,0-2,.42-2,.93s.91.93,2,.93,2-.41,2-.93S358.83,372.08,357.71,372.08Z" transform="translate(-271.57 -325.58)"/><path class="cls-2" d="M356,367.53c-1.36,0-2.47.66-2.47,1.48s1.11,1.48,2.47,1.48,2.47-.66,2.47-1.48S357.41,367.53,356,367.53Z" transform="translate(-271.57 -325.58)"/><path class="cls-2" d="M369.59,353.2c2.89-2.92-.6-4.06-.6-4.06,1.32-3.44-2.49-3.44-2.49-3.44,0-2.83-3.3-2.13-3.3-2.13a1.87,1.87,0,0,0-3.22,0c-2.77-1.78-3.71.91-3.71.91a2.38,2.38,0,0,0-3.14,1.44,8,8,0,0,0-3.34-3.32l.08-1,3.09,1.18,0-6.69-3.15,2.29,2.25-3-7.18,0,2.37,3-3-2.53.08,7.07,2.75-1.32v.93h.07a8.16,8.16,0,0,0-3.4,3.34,2.85,2.85,0,0,0-3.53-1.44s-.94-2.69-3.71-.91a1.87,1.87,0,0,0-3.22,0s-3.34-.7-3.3,2.13c0,0-3.81,0-2.49,3.44,0,0-3.49,1.14-.6,4.06,0,0-2.62,2.29.6,4a2.58,2.58,0,0,0,.06,2.32,2.93,2.93,0,0,0,1.83,1.12s.71,6.75,2.15,9.27c0,0-.87,4.7.64,5.57,0,0,6.37.61,7.74-.6h16.66c1.37,1.21,7.74.6,7.74.6,1.51-.87.64-5.57.64-5.57,1.44-2.52,2.15-9.27,2.15-9.27a2.93,2.93,0,0,0,1.83-1.12,2.58,2.58,0,0,0,.06-2.32C372.21,355.49,369.59,353.2,369.59,353.2ZM350.28,339l2.05-1.14-.05,3.68-2.12-1A1.23,1.23,0,0,0,350.28,339Zm-5.15,2.74-.05-4.23,1.47,1.51a1.85,1.85,0,0,0,.19,1.73ZM369,349.83a1.35,1.35,0,1,1-1.24,1.35A1.29,1.29,0,0,1,369,349.83Zm-1.58-3.41a1.4,1.4,0,1,1-1.34,1.4A1.37,1.37,0,0,1,367.43,346.42Zm-2.68-2.25a1.32,1.32,0,1,1-1.29,1.32A1.3,1.3,0,0,1,364.75,344.17Zm-3.16-1a1.37,1.37,0,1,1-1.34,1.37A1.36,1.36,0,0,1,361.59,343.19Zm-3.22.36A1.4,1.4,0,1,1,357,345,1.38,1.38,0,0,1,358.37,343.55Zm-3.09,1.25a1.43,1.43,0,1,1-1.4,1.43A1.41,1.41,0,0,1,355.28,344.8Zm-2.23,1.51s1.52,1.59.16,2.52c0,0-.9.31-1,0A2.88,2.88,0,0,0,353.05,346.31Zm-.85,4,7.18-2.6c8.81-.93,5.9,8.08,5.9,8.08l-1-.43c2.64-8.11-4.46-6.79-4.46-6.79l-7.57,2.21Zm5.12,11.18c-.85-.85-1.78-5.9.47-5.74C361.13,356,357.32,361.48,357.32,361.48Zm.34,2.64a.78.78,0,0,1-1.53,0,.79.79,0,0,1,1.53,0Zm3.7-1.55s-1.35,1.28-2.95-.85C358.41,361.72,360.89,360.47,361.36,362.57Zm-9.78-9.08,0-1.91,6.48-2.17c7.92-2.56,5.59,5.67,5.59,5.67C361.86,353.1,351.58,353.49,351.58,353.49Zm4.19,7.84s-3.18,1.24-3-.16C353,358.54,355.77,361.33,355.77,361.33Zm-5.51-12.62,0-1.55,1.43.08A1.27,1.27,0,0,1,350.26,348.71ZM352,346v.66h-2.17s.12-.53-.33-.63Zm-3.78,7.24a1.41,1.41,0,1,1,1.26-1.4A1.33,1.33,0,0,1,348.24,353.24Zm1.26,1.92a1.28,1.28,0,1,1-1.26-1.49A1.39,1.39,0,0,1,349.5,355.16ZM347,349.75a1.85,1.85,0,0,1-.11-.63,1.44,1.44,0,1,1,2.85,0c0,.22.06.75-.11.63A2.32,2.32,0,0,0,347,349.75Zm4.36-4.4-1.68,0v-2.21C351.56,343.92,351.34,345.35,351.34,345.35Zm-5.2-9.39,4.33,0L349,338.15a1,1,0,0,0-1.17,0Zm1,3.71a1.32,1.32,0,0,1,2.63,0,1.29,1.29,0,0,1-1.32,1.18A1.25,1.25,0,0,1,347.14,339.67Zm.54,2.68v-1h1.7v1Zm1.26.66v2.11h-1.22V343Zm-.7,3.16c1.16,0,1.14,1.17,1.16,1.2a1.65,1.65,0,0,0-2.29,0A1.16,1.16,0,0,1,348.24,346.17Zm-1.17-2.95v2.17h-1.9C345,344.66,347.07,343.22,347.07,343.22Zm0,2.8a.6.6,0,0,0-.34.65h-1.85l0-.66Zm-.65,1.49-.08,1.4c-1.79.15-1.44-1.71-1.44-1.71h1.48Zm-1.52,6s-10.28-.39-12.11,1.59c0,0-2.33-8.23,5.59-5.67l6.48,2.17Zm-1.16,7.68c.15,1.4-3,.16-3,.16S343.44,358.54,343.74,361.17Zm-5.05-5.43c2.25-.16,1.32,4.89.47,5.74C339.16,361.48,335.35,356,338.69,355.74Zm-.62,6c-1.6,2.13-2.95.85-2.95.85C335.59,360.47,338.07,361.72,338.07,361.72Zm1.51,1.8a.62.62,0,1,1,0,1.21.62.62,0,1,1,0-1.21Zm4.78-17.41v.12c-.89,1.16.42,2.75.42,2.75a1.26,1.26,0,0,1-.85-.07C342,346.5,344.36,346.11,344.36,346.11Zm-3.16-1.31a1.43,1.43,0,1,1-1.41,1.43A1.41,1.41,0,0,1,341.2,344.8Zm-3.09-1.25a1.4,1.4,0,1,1-1.37,1.4A1.38,1.38,0,0,1,338.11,343.55Zm-3.22-.36a1.37,1.37,0,1,1-1.35,1.37A1.35,1.35,0,0,1,334.89,343.19Zm2.21,4.51,7.18,2.6v.47l-7.57-2.21s-7.1-1.32-4.46,6.79l-1.05.43S328.29,346.77,337.1,347.7Zm-5.38-3.53a1.32,1.32,0,1,1-1.29,1.32A1.3,1.3,0,0,1,331.72,344.17Zm-2.67,2.25a1.4,1.4,0,1,1-1.35,1.4A1.37,1.37,0,0,1,329.05,346.42Zm-2.81,4.76a1.24,1.24,0,1,1,1.23,1.34A1.29,1.29,0,0,1,326.24,351.18Zm.07,4.11a1.32,1.32,0,1,1,1.32,1.26A1.29,1.29,0,0,1,326.31,355.29ZM329.2,360a1.57,1.57,0,1,1,1.4-1.56A1.49,1.49,0,0,1,329.2,360Zm19,13.94c-2.37-.15-15.8.47-15.8.47,5.09-.74,1.83-2.18,1.83-2.18,0-.81,14-1.08,14-1.08s14,.27,14,1.08c0,0-3.26,1.44,1.83,2.18C364,374.41,350.61,373.79,348.24,373.94Zm15.68-4.62c-4.81-.66-1.59,2.29-2.41,1.87s-13.27-.63-13.27-.63-12.46.2-13.28.63,2.41-2.53-2.4-1.87c0,0-2.8-6.05-2.6-9a12.39,12.39,0,0,0,1.24-.35,8.83,8.83,0,0,0-.19,3.69s.81.15,2.64-1.83l.69,2.8a5.34,5.34,0,0,0-3.14-.16s4.35,8.07,8.81,1.09c0,0,3.65,5,7.65-.3V362.8a3.72,3.72,0,0,0-3.09.95v-3.49c.91,1.28,3.11.95,3.11.95a7.51,7.51,0,0,0-.95-3.69l1.51,0,1.51,0a7.51,7.51,0,0,0-.95,3.69s2.2.33,3.11-.95v3.49a3.72,3.72,0,0,0-3.09-.95v2.42c4,5.27,7.65.3,7.65.3,4.46,7,8.81-1.09,8.81-1.09a5.34,5.34,0,0,0-3.14.16l.69-2.8c1.83,2,2.64,1.83,2.64,1.83a8.83,8.83,0,0,0-.19-3.69,11.69,11.69,0,0,0,1.24.35C366.72,363.27,363.92,369.32,363.92,369.32Zm3.36-9.32a1.57,1.57,0,1,1,1.4-1.56A1.48,1.48,0,0,1,367.28,360Zm2.89-4.71a1.32,1.32,0,1,1-1.32-1.26A1.29,1.29,0,0,1,370.17,355.29Z" transform="translate(-271.57 -325.58)"/><path class="cls-2" d="M323.52,393A1.62,1.62,0,0,0,325,391.3v-9.08c-.23.15.94-4.43-4.5-4.5s-33.22,0-33.22,0v32.13H322c-.39.39,3.18-.93,3.18-3V394.72A1.77,1.77,0,0,0,323.52,393Zm-10.33,8.29H297.5v-3.65h16C315,399,313.88,401.24,313.19,401.24Zm-.11-11.2H297.4v-3.65h16C314.86,387.78,313.77,390,313.08,390Z" transform="translate(-271.57 -325.58)"/><path class="cls-2" d="M348.87,480.17a77.3,77.3,0,1,1,77.29-77.29A77.38,77.38,0,0,1,348.87,480.17Zm0-145.44A68.15,68.15,0,1,0,417,402.88,68.23,68.23,0,0,0,348.87,334.73Z" transform="translate(-271.57 -325.58)"/><path class="cls-1" d="M476.65,462.7v3.64H461.28V446.49h15.16v3.64h-10v4.16H476v3.64h-9.5v4.77Z" transform="translate(-271.57 -325.58)"/><path class="cls-1" d="M494.65,452.93l-5.55,6.55,6,6.86h-5.15l-3.32-4.16-3.19,4.16h-5l5.75-6.85-5.75-6.56h5.17l3,3.87,2.88-3.87Z" transform="translate(-271.57 -325.58)"/><path class="cls-1" d="M501.33,452.93v1.16a6.38,6.38,0,0,1,8.67.53,6.72,6.72,0,0,1,1.9,4.85,7.14,7.14,0,0,1-1.9,5.18,6.73,6.73,0,0,1-5,2,7.43,7.43,0,0,1-3.63-.93V473H496.9v-20.1Zm0,3.79v6.17a4.5,4.5,0,0,0,2.57.88,3.21,3.21,0,0,0,2.56-1.1,4.44,4.44,0,0,0,1-3,4.53,4.53,0,0,0-.88-3,3,3,0,0,0-2.45-1.07A4.58,4.58,0,0,0,501.33,456.72Z" transform="translate(-271.57 -325.58)"/><path class="cls-1" d="M528.55,462.18v2.65a10.7,10.7,0,0,1-6.28,1.77,8.86,8.86,0,0,1-5.94-1.9,6.31,6.31,0,0,1-2.22-5,6.62,6.62,0,0,1,2.09-5.05,7.41,7.41,0,0,1,5.32-2,7,7,0,0,1,7.29,7.66H518.69a3.75,3.75,0,0,0,1.36,2.81,5.05,5.05,0,0,0,3.28,1A9.16,9.16,0,0,0,528.55,462.18Zm-9.77-4.1h6.12c-.24-1.95-1.26-2.92-3.06-2.92S519,456.13,518.78,458.08Z" transform="translate(-271.57 -325.58)"/><path class="cls-1" d="M536.22,452.93v3.83h.06q1.92-4.12,4.49-4.12a5.41,5.41,0,0,1,2.94,1.22l-1.22,3.74a5.61,5.61,0,0,0-2.63-1,3,3,0,0,0-2.59,1.81,9,9,0,0,0-1,2.11v5.81h-4.43V452.93Z" transform="translate(-271.57 -325.58)"/><path class="cls-1" d="M556.1,452.93v2.88H551v5.53a2,2,0,0,0,2.17,2.14,6.85,6.85,0,0,0,3-.78v3.06a11.14,11.14,0,0,1-4.11.84,5.87,5.87,0,0,1-4-1.28,4.8,4.8,0,0,1-1.43-3.75v-5.76h-2V455l5.89-6.28H551v4.22Z" transform="translate(-271.57 -325.58)"/><path class="cls-1" d="M576.15,472.78V446.49h3.33v26.29Z" transform="translate(-271.57 -325.58)"/><path class="cls-1" d="M606.79,446.49v19.85h-5.2V446.49Z" transform="translate(-271.57 -325.58)"/><path class="cls-1" d="M615.62,452.93v1.71a7.26,7.26,0,0,1,4.9-2,5.21,5.21,0,0,1,5.08,2.86,7.39,7.39,0,0,1,5.55-2.86,5.64,5.64,0,0,1,4,1.41,4.73,4.73,0,0,1,1.54,3.67v8.62h-4.43v-7.87a3.25,3.25,0,0,0-.69-2.21,2.4,2.4,0,0,0-1.91-.79c-1.3,0-2.47.76-3.5,2.28v8.59h-4.42v-7.95a3,3,0,0,0-.74-2.17,2.63,2.63,0,0,0-2-.75,4.61,4.61,0,0,0-3.39,1.86v9h-4.43V452.93Z" transform="translate(-271.57 -325.58)"/><path class="cls-1" d="M644.72,452.93v1.16a6.38,6.38,0,0,1,8.67.53,6.75,6.75,0,0,1,1.89,4.85,7.1,7.1,0,0,1-1.9,5.18,6.72,6.72,0,0,1-5,2,7.37,7.37,0,0,1-3.63-.93V473h-4.43v-20.1Zm0,3.79v6.17a4.48,4.48,0,0,0,2.57.88,3.23,3.23,0,0,0,2.56-1.1,4.44,4.44,0,0,0,.94-3,4.58,4.58,0,0,0-.87-3,3,3,0,0,0-2.46-1.07A4.58,4.58,0,0,0,644.72,456.72Z" transform="translate(-271.57 -325.58)"/><path class="cls-1" d="M672.58,463v2.34a8.59,8.59,0,0,1-4.15,1.23c-1.39,0-2.22-.51-2.48-1.51a8.48,8.48,0,0,1-4.64,1.51,4.14,4.14,0,0,1-2.79-1,3,3,0,0,1-1.15-2.3,3.65,3.65,0,0,1,1.19-2.83c.79-.71,3.19-1.64,7.18-2.77.1-1.49-.71-2.24-2.44-2.24a7.47,7.47,0,0,0-5.2,2.24v-3.43a11.83,11.83,0,0,1,6.11-1.64q6,0,6,4.08v6.12c0,.63.24.94.73.94A3.59,3.59,0,0,0,672.58,463Zm-6.84.05v-3.25a12.82,12.82,0,0,0-3,1.34,1.78,1.78,0,0,0-.83,1.5,1.45,1.45,0,0,0,1.44,1.43A3.73,3.73,0,0,0,665.74,463.08Z" transform="translate(-271.57 -325.58)"/><path class="cls-1" d="M679,452.93v3.83H679c1.29-2.75,2.78-4.12,4.5-4.12a5.47,5.47,0,0,1,2.94,1.22l-1.23,3.74a5.58,5.58,0,0,0-2.62-1,3,3,0,0,0-2.59,1.81,9.23,9.23,0,0,0-1.06,2.11v5.81h-4.43V452.93Z" transform="translate(-271.57 -325.58)"/><path class="cls-1" d="M698.84,452.93v2.88h-5.13v5.53a2.13,2.13,0,0,0,.57,1.57,2.18,2.18,0,0,0,1.59.57,6.78,6.78,0,0,0,3-.78v3.06a11.09,11.09,0,0,1-4.1.84,5.85,5.85,0,0,1-4-1.28,4.77,4.77,0,0,1-1.43-3.75v-5.76h-2V455l5.9-6.28h.55v4.22Z" transform="translate(-271.57 -325.58)"/><path class="cls-1" d="M701,448.56a2.2,2.2,0,0,1,.71-1.65,2.53,2.53,0,0,1,3.45,0,2.26,2.26,0,0,1,0,3.29,2.5,2.5,0,0,1-3.45,0A2.17,2.17,0,0,1,701,448.56Zm4.67,4.37v13.41h-4.44V452.93Z" transform="translate(-271.57 -325.58)"/><path class="cls-1" d="M723.79,463v2.34a8.56,8.56,0,0,1-4.15,1.23c-1.39,0-2.22-.51-2.47-1.51a8.51,8.51,0,0,1-4.65,1.51,4.14,4.14,0,0,1-2.79-1,3,3,0,0,1-1.15-2.3,3.65,3.65,0,0,1,1.19-2.83c.79-.71,3.19-1.64,7.19-2.77.1-1.49-.72-2.24-2.45-2.24a7.43,7.43,0,0,0-5.19,2.24v-3.43a11.79,11.79,0,0,1,6.1-1.64q6,0,6,4.08v6.12c0,.63.24.94.73.94A3.59,3.59,0,0,0,723.79,463Zm-6.83.05v-3.25a12.74,12.74,0,0,0-3.06,1.34,1.77,1.77,0,0,0-.82,1.5,1.39,1.39,0,0,0,.41,1,1.36,1.36,0,0,0,1,.43A3.78,3.78,0,0,0,717,463.08Z" transform="translate(-271.57 -325.58)"/><path class="cls-1" d="M730.15,446.49v19.85h-4.44V446.49Z" transform="translate(-271.57 -325.58)"/><path class="cls-1" d="M751.68,472.78V446.49H755v26.29Z" transform="translate(-271.57 -325.58)"/><path class="cls-1" d="M782.31,446.49v19.85h-5.19V446.49Z" transform="translate(-271.57 -325.58)"/><path class="cls-1" d="M791.06,452.93v1.9a6,6,0,0,1,4.58-2.19A5.24,5.24,0,0,1,799.3,454a4.91,4.91,0,0,1,1.47,3.83v8.53h-4.43v-8.18c0-1.79-.73-2.69-2.19-2.69q-1.57,0-3.09,2.22v8.65h-4.44V452.93Z" transform="translate(-271.57 -325.58)"/><path class="cls-1" d="M808.87,452.93v1.9a6,6,0,0,1,4.58-2.19,5.25,5.25,0,0,1,3.67,1.34,4.91,4.91,0,0,1,1.47,3.83v8.53h-4.43v-8.18c0-1.79-.74-2.69-2.2-2.69q-1.56,0-3.09,2.22v8.65h-4.43V452.93Z" transform="translate(-271.57 -325.58)"/><path class="cls-1" d="M829.52,452.64a8.7,8.7,0,0,1,5.62,1.85,6.22,6.22,0,0,1,2.31,5.15,6.13,6.13,0,0,1-2.35,5.14,8.84,8.84,0,0,1-5.58,1.82,8.43,8.43,0,0,1-5.73-1.94,6.38,6.38,0,0,1-2.23-5.05,6.26,6.26,0,0,1,2.27-5.06A8.58,8.58,0,0,1,829.52,452.64Zm0,11.46c2.12,0,3.18-1.53,3.18-4.57s-1.06-4.37-3.18-4.37a2.81,2.81,0,0,0-2.38,1.15,5.47,5.47,0,0,0-.85,3.3Q826.29,464.1,829.52,464.1Z" transform="translate(-271.57 -325.58)"/><path class="cls-1" d="M843.93,466.6l-6.51-13.67h4.75l3,7.39,3-7.39h4.7l-6.48,13.67Z" transform="translate(-271.57 -325.58)"/><path class="cls-1" d="M869.16,463v2.34A8.62,8.62,0,0,1,865,466.6c-1.39,0-2.22-.51-2.48-1.51a8.48,8.48,0,0,1-4.64,1.51,4.14,4.14,0,0,1-2.79-1,3,3,0,0,1-1.15-2.3,3.65,3.65,0,0,1,1.19-2.83c.79-.71,3.18-1.64,7.18-2.77.1-1.49-.71-2.24-2.45-2.24a7.45,7.45,0,0,0-5.19,2.24v-3.43a11.83,11.83,0,0,1,6.11-1.64q6,0,6,4.08v6.12c0,.63.25.94.74.94A3.63,3.63,0,0,0,869.16,463Zm-6.84.05v-3.25a12.62,12.62,0,0,0-3.05,1.34,1.78,1.78,0,0,0-.83,1.5,1.45,1.45,0,0,0,1.43,1.43A3.74,3.74,0,0,0,862.32,463.08Z" transform="translate(-271.57 -325.58)"/><path class="cls-1" d="M881.11,452.93v2.88H876v5.53a2,2,0,0,0,2.16,2.14,6.85,6.85,0,0,0,3-.78v3.06a11.1,11.1,0,0,1-4.11.84,5.83,5.83,0,0,1-4-1.28,4.77,4.77,0,0,1-1.44-3.75v-5.76h-2V455l5.89-6.28H876v4.22Z" transform="translate(-271.57 -325.58)"/><path class="cls-1" d="M883.24,448.56a2.21,2.21,0,0,1,.72-1.65,2.42,2.42,0,0,1,1.71-.68,2.46,2.46,0,0,1,1.74.68,2.26,2.26,0,0,1,0,3.29,2.42,2.42,0,0,1-1.74.69,2.39,2.39,0,0,1-1.71-.69A2.18,2.18,0,0,1,883.24,448.56Zm4.67,4.37v13.41h-4.43V452.93Z" transform="translate(-271.57 -325.58)"/><path class="cls-1" d="M896.41,466.6l-6.51-13.67h4.75l3,7.39,3-7.39h4.7l-6.48,13.67Z" transform="translate(-271.57 -325.58)"/><path class="cls-1" d="M920.38,462.18v2.65a10.7,10.7,0,0,1-6.28,1.77,8.86,8.86,0,0,1-5.94-1.9,6.31,6.31,0,0,1-2.22-5,6.62,6.62,0,0,1,2.09-5.05,7.42,7.42,0,0,1,5.32-2,7.23,7.23,0,0,1,5.34,2.08,7.13,7.13,0,0,1,1.95,5.58H910.52a3.75,3.75,0,0,0,1.36,2.81,5.05,5.05,0,0,0,3.28,1A9.16,9.16,0,0,0,920.38,462.18Zm-9.77-4.1h6.12c-.24-1.95-1.26-2.92-3.06-2.92S910.83,456.13,910.61,458.08Z" transform="translate(-271.57 -325.58)"/></svg>